<svg width="1073" height="731" viewBox="0 0 1073 731" fill="none" xmlns="http://www.w3.org/2000/svg">
<path fill-rule="evenodd" clip-rule="evenodd" d="M918.858 10.7006C925.9 3.56687 934.585 0 944.913 0C955.71 0 964.395 3.56686 970.967 10.7006C977.54 17.3588 980.826 25.9193 980.826 36.3821V228.994L981 228.782V345.28C980.648 350.744 980.5 356.32 980.5 362C980.5 387.681 983.408 410.191 994.205 430.166C1005 450.616 1019.79 466.548 1038.57 477.962C1049.38 484.64 1060.86 489.443 1073 492.37V557.963C1048.06 554.432 1025.08 546.313 1004.06 533.605C974.958 516.484 951.955 492.943 935.054 462.981C918.154 433.019 909.469 399.253 909 361.681L909 36.3821C909 25.9193 912.286 17.3588 918.858 10.7006ZM352.087 12C362.415 12 371.1 15.5669 378.142 22.7006C384.714 29.3588 388 37.9193 388 48.3821V373.681C387.531 411.253 378.846 445.019 361.946 474.981C345.045 504.943 322.042 528.484 292.936 545.605C263.831 563.202 230.969 572 194.352 572C157.266 572 124.169 563.202 95.0635 545.605C65.9576 528.484 42.9546 504.943 26.0544 474.981C8.68477 445.019 -3.28457e-06 411.253 0 373.681C3.28457e-06 336.11 7.98063 302.344 23.9419 272.382C39.4338 242.896 60.7937 219.355 88.0218 201.758C115.25 184.637 145.999 176.076 180.269 176.076C192.608 175.82 204.515 176.922 216 179.229V240.827C207.237 239.176 198.406 238.721 190 240C189.343 240.1 188.691 240.199 188.045 240.297C164.941 243.807 148.539 246.298 130.272 257.401C111.494 269.291 96.7066 285.223 85.9092 305.197C74.6425 325.647 69.009 348.475 69.009 373.681C69.009 399.363 74.6425 422.191 85.9092 442.166C96.7066 462.616 111.494 478.548 130.272 489.962C149.05 501.851 170.41 507.796 194.352 507.796C217.825 507.796 239.185 501.851 258.432 489.962C277.21 478.548 291.998 462.616 302.795 442.166C313.592 422.191 316.5 399.681 316.5 374C316.5 368.32 316.352 362.744 316 357.281V240.782L316.174 240.994V48.3821C316.174 37.9193 319.46 29.3588 326.033 22.7006C332.605 15.5669 341.29 12 352.087 12ZM761 414L761 376.718C761.352 371.255 761.5 365.68 761.5 360.001C761.5 334.319 758.592 311.81 747.795 291.835C736.998 271.385 722.21 255.453 703.432 244.039C684.185 232.15 662.825 226.205 639.352 226.205C615.41 226.205 594.05 232.15 575.272 244.039C556.494 255.453 541.707 271.385 530.909 291.835C519.642 311.81 514.009 334.638 514.009 360.319C514.009 385.525 519.642 408.353 530.909 428.803C541.707 448.778 556.494 464.71 575.272 476.6C593.539 487.703 609.94 490.194 633.044 493.704C633.691 493.802 634.343 493.901 635 494.001C643.406 495.28 652.237 494.824 661 493.174V554.772C649.515 557.079 637.608 558.181 625.269 557.924C590.999 557.924 560.25 549.364 533.022 532.243C505.794 514.646 484.434 491.105 468.942 461.619C452.981 431.657 445 397.891 445 360.319C445 322.748 453.685 288.982 471.054 259.02C487.955 229.058 510.958 205.517 540.063 188.396C569.169 170.799 602.266 162.001 639.352 162.001C675.969 162.001 708.831 170.799 737.936 188.396C767.042 205.517 790.045 229.058 806.946 259.02C823.846 288.982 832.531 322.748 833 360.319L833 414L833 461L833 534.681C832.531 572.253 823.846 606.019 806.946 635.981C790.045 665.943 767.042 689.484 737.936 706.605C716.916 719.313 693.938 727.432 669 730.963V665.37C681.144 662.443 692.621 657.64 703.432 650.962C722.21 639.548 736.998 623.616 747.795 603.166C758.592 583.191 761.5 560.681 761.5 535C761.5 529.32 761.352 523.744 761 518.28V414Z" fill="white"/>
</svg>
